<?xml version="1.0" encoding="UTF-8" standalone="no"?>
<svg
   version="1.1"
   width="316.97607"
   height="183.93199"
   style="clip-rule:evenodd;fill-rule:evenodd;image-rendering:optimizeQuality;shape-rendering:geometricPrecision;text-rendering:geometricPrecision"
   id="svg186"
   sodipodi:docname="c26cae4dfac5be64e50f664535b04c19.svg"
   xmlns:inkscape="http://www.inkscape.org/namespaces/inkscape"
   xmlns:sodipodi="http://sodipodi.sourceforge.net/DTD/sodipodi-0.dtd"
   xmlns="http://www.w3.org/2000/svg"
   xmlns:svg="http://www.w3.org/2000/svg">
  <defs
     id="defs190" />
  <sodipodi:namedview
     id="namedview188"
     pagecolor="#ffffff"
     bordercolor="#666666"
     borderopacity="1.0"
     inkscape:pageshadow="2"
     inkscape:pageopacity="0.0"
     inkscape:pagecheckerboard="0" />
  <g
     id="g4"
     transform="translate(-169.52392,-30.499975)">
    <path
       style="opacity:0.937"
       fill="#6db9da"
       d="m 319.5,46.5 c -4.559,2.9464 -9.559,5.4464 -15,7.5 -3.092,0.7358 -6.092,0.5691 -9,-0.5 -0.915,-7.079 -2.248,-14.079 -4,-21 -1.667,0 -3.333,0 -5,0 -1.44,4.9725 -2.773,9.9725 -4,15 0.302,2.5593 -0.032,4.8926 -1,7 -3.398,0.3204 -6.732,-0.013 -10,-1 -0.363,-0.6835 -0.696,-1.3501 -1,-2 3.198,1.2868 6.531,1.9535 10,2 0.768,-7.1429 2.268,-14.1429 4.5,-21 2.667,-2.6667 5.333,-2.6667 8,0 2.232,6.765 4.066,13.5983 5.5,20.5 1.333,0.6667 2.667,0.6667 4,0 5.573,-2.4679 11.24,-4.6346 17,-6.5 z"
       id="path2" />
  </g>
  <g
     id="g8"
     transform="translate(-169.52392,-30.499975)">
    <path
       style="opacity:1"
       fill="#20a2d6"
       d="m 295.5,53.5 c -1.463,-2.7026 -2.296,-5.7026 -2.5,-9 -0.368,-1.41 -1.201,-2.41 -2.5,-3 -0.717,2.7707 -1.051,5.4374 -1,8 -0.586,0.2093 -1.086,0.5426 -1.5,1 -1.506,-1.6742 -3.339,-2.6742 -5.5,-3 1.227,-5.0275 2.56,-10.0275 4,-15 1.667,0 3.333,0 5,0 1.752,6.921 3.085,13.921 4,21 z"
       id="path6" />
  </g>
  <g
     id="g12"
     transform="translate(-169.52392,-30.499975)">
    <path
       style="opacity:1"
       fill="#4aa3cf"
       d="m 273.5,65.5 c 10.751,0.3323 20.751,-0.001 30,-1 0.453,-0.9584 1.119,-1.7917 2,-2.5 2.553,-1.3764 5.22,-2.5431 8,-3.5 -3.453,-0.9786 -3.786,-2.4786 -1,-4.5 4.795,-0.2092 9.128,-1.7092 13,-4.5 0.886,-0.825 1.219,-1.825 1,-3 -2.333,0 -4.667,0 -7,0 5.024,-2.5672 10.358,-4.5672 16,-6 3.739,-0.1289 4.572,1.2045 2.5,4 -11.091,6.7941 -21.924,13.9608 -32.5,21.5 -10.841,0.8255 -21.508,0.6588 -32,-0.5 z"
       id="path10" />
  </g>
  <g
     id="g16"
     transform="translate(-169.52392,-30.499975)">
    <path
       style="opacity:1"
       fill="#2292d1"
       d="m 295.5,53.5 c 2.908,1.0691 5.908,1.2358 9,0.5 5.441,-2.0536 10.441,-4.5536 15,-7.5 2.333,0 4.667,0 7,0 0.219,1.175 -0.114,2.175 -1,3 -3.872,2.7908 -8.205,4.2908 -13,4.5 -2.786,2.0214 -2.453,3.5214 1,4.5 -2.78,0.9569 -5.447,2.1236 -8,3.5 -0.881,0.7083 -1.547,1.5416 -2,2.5 -10,0 -20,0 -30,0 -0.039,-1.8588 0.794,-3.1921 2.5,-4 1.329,0.9939 2.662,1.9939 4,3 0.5,-0.3333 1,-0.6667 1.5,-1 -1.016,-2.6337 -1.016,-5.3004 0,-8 0.968,-2.1074 1.302,-4.4407 1,-7 2.161,0.3258 3.994,1.3258 5.5,3 0.414,-0.4574 0.914,-0.7907 1.5,-1 -0.051,-2.5626 0.283,-5.2293 1,-8 1.299,0.59 2.132,1.59 2.5,3 0.204,3.2974 1.037,6.2974 2.5,9 z"
       id="path14" />
  </g>
  <g
     id="g20"
     transform="translate(-169.52392,-30.499975)">
    <path
       style="opacity:1"
       fill="#3297ce"
       d="m 270.5,51.5 c 0.304,0.6499 0.637,1.3165 1,2 3.268,0.987 6.602,1.3204 10,1 -1.016,2.6996 -1.016,5.3663 0,8 -0.5,0.3333 -1,0.6667 -1.5,1 -1.338,-1.0061 -2.671,-2.0061 -4,-3 -1.706,0.8079 -2.539,2.1412 -2.5,4 10,0 20,0 30,0 -9.249,0.999 -19.249,1.3323 -30,1 -11.867,-6.8656 -23.201,-14.5323 -34,-23 1.544,-1.9461 3.544,-2.4461 6,-1.5 8.566,3.0197 16.899,6.5197 25,10.5 z"
       id="path18" />
  </g>
  <g
     id="g24"
     transform="translate(-169.52392,-30.499975)">
    <path
       style="opacity:0.819"
       fill="#7abadc"
       d="m 351.5,73.5 c -6,0 -12,0 -18,0 -8,0 -16,0 -24,0 -13,0 -26,0 -39,0 27.004,-2.4949 54.004,-2.4949 81,0 z"
       id="path22" />
  </g>
  <g
     id="g28"
     transform="translate(-169.52392,-30.499975)">
    <path
       style="opacity:1"
       fill="#268dce"
       d="m 309.5,73.5 c 8,0 16,0 24,0 3.486,1.0333 7.153,1.8666 11,2.5 -4.881,2.1456 -9.881,2.8123 -15,2 -1.323,0.8159 -1.989,1.9826 -2,3.5 -1.963,1.3202 -3.963,2.6535 -6,4 -1.235,0.2214 -2.235,0.8881 -3,2 -0.667,8.1567 -1.333,16.157 -2,24 0.135,-7.362 -0.198,-14.6958 -1,-22 -2.195,-2.5764 -4.862,-3.243 -8,-2 -3.947,-0.6875 -7.78,-1.6875 -11.5,-3 -6.076,0.9764 -12.242,1.3097 -18.5,1 0,1 0,2 0,3 -2.082,0.028 -3.916,-0.6387 -5.5,-2 -1.57,0.8578 -3.237,1.5245 -5,2 -2.346,-1.2077 -4.513,-2.541 -6.5,-4 -0.891,-0.6098 -1.891,-0.9431 -3,-1 -0.453,-0.9584 -1.119,-1.7917 -2,-2.5 -7.333,-0.3333 -14.667,-0.6667 -22,-1 1.449,-1.117 3.116,-1.7837 5,-2 3.719,-0.3884 7.386,-1.0551 11,-2 20.163,-0.7825 40.163,-1.6159 60,-2.5 z"
       id="path26" />
  </g>
  <g
     id="g32"
     transform="translate(-169.52392,-30.499975)">
    <path
       style="opacity:1"
       fill="#4293c6"
       d="m 270.5,73.5 c 13,0 26,0 39,0 -19.837,0.8841 -39.837,1.7175 -60,2.5 -3.614,0.9449 -7.281,1.6116 -11,2 -1.884,0.2163 -3.551,0.883 -5,2 7.333,0.3333 14.667,0.6667 22,1 0.881,0.7083 1.547,1.5416 2,2.5 -18.092,-2.5081 -35.759,-0.6748 -53,5.5 -6.879,2.0812 -11.546,6.4145 -14,13 0.5,1.5 1,3 1.5,4.5 1.652,0.899 3.152,1.899 4.5,3 -3.607,0.121 -5.773,-1.545 -6.5,-5 -0.667,-2.333 -0.667,-4.6667 0,-7 2.018,-2.9316 4.184,-5.7649 6.5,-8.5 -1.634,-0.4935 -3.301,-0.6602 -5,-0.5 0.221,4.2954 -1.112,4.9621 -4,2 -2.712,0.8724 -5.045,2.3724 -7,4.5 -1.293,0.49 -2.627,0.6567 -4,0.5 8.726,-7.1945 18.726,-12.0278 30,-14.5 21.091,-4.5425 42.425,-7.0425 64,-7.5 z"
       id="path30" />
  </g>
  <g
     id="g36"
     transform="translate(-169.52392,-30.499975)">
    <path
       style="opacity:1"
       fill="#4b98c7"
       d="m 333.5,73.5 c 6,0 12,0 18,0 16.855,0.4042 33.188,3.5708 49,9.5 2.084,0.6972 3.751,1.8639 5,3.5 -5.082,-0.737 -10.082,-1.9037 -15,-3.5 -1.746,-2.2585 -4.08,-3.5918 -7,-4 -12.388,-3.2698 -25.055,-4.2698 -38,-3 2.562,1.1409 5.228,1.9743 8,2.5 1.213,0.2472 1.88,0.9138 2,2 -9.385,-2.3304 -18.719,-1.997 -28,1 0.011,-1.5174 0.677,-2.6841 2,-3.5 5.119,0.8123 10.119,0.1456 15,-2 -3.847,-0.6334 -7.514,-1.4667 -11,-2.5 z"
       id="path34" />
  </g>
  <g
     id="g40"
     transform="translate(-169.52392,-30.499975)">
    <path
       style="opacity:1"
       fill="#2c88c7"
       d="m 405.5,86.5 c 5.667,2.3333 9.667,6.3333 12,12 0.369,2.819 0.702,5.652 1,8.5 -0.525,3.541 -1.192,7.041 -2,10.5 -1.93,3.6 -4.597,6.6 -8,9 -0.438,0.065 -0.772,-0.101 -1,-0.5 2.5,-2.5 5,-5 7.5,-7.5 0.497,-2.646 0.664,-5.313 0.5,-8 0.647,-0.774 0.98,-1.774 1,-3 -0.675,-3.701 -1.509,-7.368 -2.5,-11 -2.184,0.6081 -4.184,-0.0586 -6,-2 -0.333,0.3333 -0.667,0.6667 -1,1 -1.204,-0.9706 -1.704,-1.9706 -1.5,-3 -1.374,1.2113 -2.874,2.2113 -4.5,3 0.027,-1.2883 -0.973,-2.2883 -3,-3 -8.99,-0.6467 -18.156,-0.6467 -27.5,0 -0.997,7.3032 -1.331,14.637 -1,22 -0.333,0 -0.667,0 -1,0 -0.805,-8.589 -1.305,-17.2557 -1.5,-26 -2.93,-4.1169 -6.763,-6.7835 -11.5,-8 -0.12,-1.0862 -0.787,-1.7528 -2,-2 -2.772,-0.5257 -5.438,-1.3591 -8,-2.5 12.945,-1.2698 25.612,-0.2698 38,3 2.92,0.4082 5.254,1.7415 7,4 4.918,1.5963 9.918,2.763 15,3.5 z"
       id="path38" />
  </g>
  <g
     id="g44"
     transform="translate(-169.52392,-30.499975)">
    <path
       style="opacity:1"
       fill="#2281c5"
       d="m 260.5,84.5 c 1.987,1.459 4.154,2.7923 6.5,4 1.763,-0.4755 3.43,-1.1422 5,-2 1.584,1.3613 3.418,2.028 5.5,2 0,-1 0,-2 0,-3 6.258,0.3097 12.424,-0.0236 18.5,-1 3.72,1.3125 7.553,2.3125 11.5,3 3.138,-1.243 5.805,-0.5764 8,2 -1.729,1.4527 -2.729,3.4527 -3,6 0.333,0.6667 0.667,1.3333 1,2 -2.82,1.1941 -5.653,1.1941 -8.5,0 -1.5,0.5 -3,1 -4.5,1.5 -10.91,0.1786 -21.743,0.6786 -32.5,1.5 -0.967,-1.1776 -1.467,-2.511 -1.5,-4 -0.558,4.477 -1.391,8.811 -2.5,13 -0.393,-7.925 -1.559,-15.592 -3.5,-23 0,-0.6667 0,-1.3333 0,-2 z"
       id="path42" />
  </g>
  <g
     id="g48"
     transform="translate(-169.52392,-30.499975)">
    <path
       style="opacity:1"
       fill="#1a78bb"
       d="m 415.5,110.5 c 0.157,-1.373 -0.01,-2.707 -0.5,-4 -2.681,2.027 -4.347,4.693 -5,8 -0.95,-3.392 -3.117,-4.559 -6.5,-3.5 1.333,0.667 1.333,1.333 0,2 -1.699,0.958 -3.533,1.458 -5.5,1.5 -4.049,-1.294 -8.215,-2.127 -12.5,-2.5 -1.576,-0.44 -2.91,-1.273 -4,-2.5 -1.22,1.211 -2.387,1.211 -3.5,0 -0.626,2.491 -1.459,2.491 -2.5,0 -0.815,1.776 -1.982,2.443 -3.5,2 -0.499,5.323 -0.666,10.656 -0.5,16 0.423,2.281 -0.244,3.948 -2,5 0.831,-5.927 0.831,-11.927 0,-18 -0.331,-7.363 0.003,-14.6968 1,-22 9.344,-0.6467 18.51,-0.6467 27.5,0 2.027,0.7117 3.027,1.7117 3,3 1.626,-0.7887 3.126,-1.7887 4.5,-3 -0.204,1.0294 0.296,2.0294 1.5,3 0.333,-0.3333 0.667,-0.6667 1,-1 1.816,1.9414 3.816,2.6081 6,2 0.991,3.632 1.825,7.299 2.5,11 -0.02,1.226 -0.353,2.226 -1,3 z"
       id="path46" />
  </g>
  <g
     id="g52"
     transform="translate(-169.52392,-30.499975)">
    <path
       style="opacity:1"
       fill="#1c74b7"
       d="m 260.5,86.5 c 1.941,7.408 3.107,15.075 3.5,23 1.109,-4.189 1.942,-8.523 2.5,-13 0.033,1.489 0.533,2.8224 1.5,4 10.757,-0.8214 21.59,-1.3214 32.5,-1.5 1.5,-0.5 3,-1 4.5,-1.5 2.847,1.1941 5.68,1.1941 8.5,0 -0.333,-0.6667 -0.667,-1.3333 -1,-2 0.271,-2.5473 1.271,-4.5473 3,-6 0.802,7.3042 1.135,14.638 1,22 0.081,5.523 -0.252,11.023 -1,16.5 0.069,1.986 0.735,3.486 2,4.5 1.372,1.012 2.705,2.012 4,3 -3.136,0.521 -5.47,-0.479 -7,-3 -0.214,-6.697 0.119,-13.364 1,-20 -0.077,-1.799 -0.577,-3.466 -1.5,-5 -0.98,1.481 -2.147,2.815 -3.5,4 -13.786,-0.351 -28.286,-1.017 -43.5,-2 -1.735,1.182 -2.735,2.849 -3,5 -0.422,-3.705 -1.588,-4.372 -3.5,-2 0,-8.667 0,-17.3333 0,-26 z"
       id="path50" />
  </g>
  <g
     id="g56"
     transform="translate(-169.52392,-30.499975)">
    <path
       style="opacity:0.918"
       fill="#558ebb"
       d="m 233.5,120.5 c 0.165,-3.682 -0.001,-7.348 -0.5,-11 -0.75,-0.626 -1.584,-1.126 -2.5,-1.5 -4.333,-0.667 -8.667,-0.667 -13,0 -4.846,1.808 -9.846,2.975 -15,3.5 -2.299,-0.099 -4.299,-0.766 -6,-2 7.896,0.943 15.562,-0.224 23,-3.5 7.415,-1.754 13.248,0.412 17.5,6.5 0.741,3.516 -0.425,6.183 -3.5,8 z"
       id="path54" />
  </g>
  <g
     id="g60"
     transform="translate(-169.52392,-30.499975)">
    <path
       style="opacity:0.635"
       fill="#8cb8d6"
       d="m 417.5,98.5 c 3.54,6.393 3.206,12.727 -1,19 0.808,-3.459 1.475,-6.959 2,-10.5 -0.298,-2.848 -0.631,-5.681 -1,-8.5 z"
       id="path58" />
  </g>
  <g
     id="g64"
     transform="translate(-169.52392,-30.499975)">
    <path
       style="opacity:0.086"
       fill="#7badd5"
       d="m 321.5,85.5 c -0.82,1.6401 -1.653,3.3068 -2.5,5 -0.62,13.998 -1.12,27.998 -1.5,42 -1.265,-1.014 -1.931,-2.514 -2,-4.5 0.748,-5.477 1.081,-10.977 1,-16.5 0.667,-7.843 1.333,-15.8433 2,-24 0.765,-1.1119 1.765,-1.7786 3,-2 z"
       id="path62" />
  </g>
  <g
     id="g68"
     transform="translate(-169.52392,-30.499975)">
    <path
       style="opacity:1"
       fill="#176bb2"
       d="m 314.5,132.5 c -0.666,-3.189 -1.333,-6.523 -2,-10 -0.929,1.189 -1.262,2.522 -1,4 -6.866,-0.764 -13.7,-0.097 -20.5,2 -8.673,-0.978 -17.84,-1.312 -27.5,-1 -0.433,-2.666 -0.933,-5.332 -1.5,-8 -0.198,1.882 -0.698,3.548 -1.5,5 0,-4 0,-8 0,-12 1.912,-2.372 3.078,-1.705 3.5,2 0.265,-2.151 1.265,-3.818 3,-5 15.214,0.983 29.714,1.649 43.5,2 1.353,-1.185 2.52,-2.519 3.5,-4 0.923,1.534 1.423,3.201 1.5,5 -0.881,6.636 -1.214,13.303 -1,20 z"
       id="path66" />
  </g>
  <g
     id="g72"
     transform="translate(-169.52392,-30.499975)">
    <path
       style="opacity:1"
       fill="#176ab2"
       d="m 415.5,110.5 c 0.164,2.687 -0.003,5.354 -0.5,8 -2.5,2.5 -5,5 -7.5,7.5 0.228,0.399 0.562,0.565 1,0.5 -0.342,0.838 -1.008,1.172 -2,1 0,-1 0,-2 0,-3 -9.99,-1.35 -19.823,-0.684 -29.5,2 -1.653,-0.32 -2.653,-1.32 -3,-3 -0.934,1.358 -1.768,2.692 -2.5,4 -0.166,-5.344 10e-4,-10.677 0.5,-16 1.518,0.443 2.685,-0.224 3.5,-2 1.041,2.491 1.874,2.491 2.5,0 1.113,1.211 2.28,1.211 3.5,0 1.09,1.227 2.424,2.06 4,2.5 4.285,0.373 8.451,1.206 12.5,2.5 1.967,-0.042 3.801,-0.542 5.5,-1.5 1.333,-0.667 1.333,-1.333 0,-2 3.383,-1.059 5.55,0.108 6.5,3.5 0.653,-3.307 2.319,-5.973 5,-8 0.49,1.293 0.657,2.627 0.5,4 z"
       id="path70" />
  </g>
  <g
     id="g76"
     transform="translate(-169.52392,-30.499975)">
    <path
       style="opacity:0.647"
       fill="#6ba1c9"
       d="m 176.5,95.5 c -0.185,1.6958 -1.019,3.0291 -2.5,4 -1.102,5.704 -1.269,11.37 -0.5,17 -5.129,-5.68 -5.296,-11.68 -0.5,-18 1.039,-1.2101 2.206,-2.2101 3.5,-3 z"
       id="path74" />
  </g>
  <g
     id="g80"
     transform="translate(-169.52392,-30.499975)">
    <path
       style="opacity:1"
       fill="#1b6eb3"
       d="m 196.5,109.5 c 1.701,1.234 3.701,1.901 6,2 5.154,-0.525 10.154,-1.692 15,-3.5 4.333,-0.667 8.667,-0.667 13,0 0.916,0.374 1.75,0.874 2.5,1.5 0.499,3.652 0.665,7.318 0.5,11 -2.228,2.95 -5.228,4.616 -9,5 -10.616,2.073 -21.283,2.407 -32,1 -4.922,-0.585 -9.589,-2.085 -14,-4.5 -2.579,-1.076 -4.246,-2.909 -5,-5.5 -0.769,-5.63 -0.602,-11.296 0.5,-17 1.481,-0.9709 2.315,-2.3042 2.5,-4 1.373,0.1567 2.707,-0.01 4,-0.5 1.955,-2.1276 4.288,-3.6276 7,-4.5 2.888,2.9621 4.221,2.2954 4,-2 1.699,-0.1602 3.366,0.0065 5,0.5 -2.316,2.7351 -4.482,5.5684 -6.5,8.5 -0.667,2.3333 -0.667,4.667 0,7 0.727,3.455 2.893,5.121 6.5,5 z"
       id="path78" />
  </g>
  <g
     id="g84"
     transform="translate(-169.52392,-30.499975)">
    <path
       style="opacity:1"
       fill="#2660a6"
       d="m 406.5,127.5 c -9.332,5.556 -19.499,9.223 -30.5,11 -1.608,0.474 -1.774,1.141 -0.5,2 2.28,0.636 4.28,1.636 6,3 -5.918,-0.291 -10.584,-2.625 -14,-7 0.934,-1.068 1.268,-2.401 1,-4 0.333,0 0.667,0 1,0 1.756,-1.052 2.423,-2.719 2,-5 0.732,-1.308 1.566,-2.642 2.5,-4 0.347,1.68 1.347,2.68 3,3 9.677,-2.684 19.51,-3.35 29.5,-2 0,1 0,2 0,3 z"
       id="path82" />
  </g>
  <g
     id="g88"
     transform="translate(-169.52392,-30.499975)">
    <path
       style="opacity:0.289"
       fill="#5084b4"
       d="m 224.5,125.5 c -10.585,3.44 -21.252,3.773 -32,1 10.717,1.407 21.384,1.073 32,-1 z"
       id="path86" />
  </g>
  <g
     id="g92"
     transform="translate(-169.52392,-30.499975)">
    <path
       style="opacity:1"
       fill="#235ba3"
       d="m 314.5,132.5 c 1.53,2.521 3.864,3.521 7,3 0.111,0.617 0.444,1.117 1,1.5 3.986,0.499 7.986,0.666 12,0.5 0,2.667 0,5.333 0,8 -1.716,-0.129 -3.383,-0.462 -5,-1 -3.623,-1.156 -7.289,-2.156 -11,-3 -1.333,0 -2.667,0 -4,0 0,2.333 0,4.667 0,7 -0.961,-1.765 -1.295,-3.765 -1,-6 -14.683,1 -29.349,0.667 -44,-1 -0.333,-1 -1,-1.667 -2,-2 -1.195,1.797 -2.862,2.797 -5,3 0.166,-5.676 -10e-4,-11.343 -0.5,-17 -0.171,7.844 -0.671,15.511 -1.5,23 0,-8 0,-16 0,-24 0.802,-1.452 1.302,-3.118 1.5,-5 0.567,2.668 1.067,5.334 1.5,8 9.66,-0.312 18.827,0.022 27.5,1 6.8,-2.097 13.634,-2.764 20.5,-2 -0.262,-1.478 0.071,-2.811 1,-4 0.667,3.477 1.334,6.811 2,10 z"
       id="path90" />
  </g>
  <g
     id="g96"
     transform="translate(-169.52392,-30.499975)">
    <path
       style="opacity:0.647"
       fill="#82a5c7"
       d="m 368.5,114.5 c 0.333,0 0.667,0 1,0 0.831,6.073 0.831,12.073 0,18 -0.333,0 -0.667,0 -1,0 0.271,-5.905 0.271,-11.905 0,-18 z"
       id="path94" />
  </g>
  <g
     id="g100"
     transform="translate(-169.52392,-30.499975)">
    <path
       style="opacity:0.192"
       fill="#5b80b1"
       d="m 257.5,83.5 c 1.109,0.0569 2.109,0.3902 3,1 0,0.6667 0,1.3333 0,2 0,8.6667 0,17.333 0,26 0,4 0,8 0,12 0,8 0,16 0,24 0,4 0,8 0,12 0,12 0,24 0,36 -0.833,-36.831 -1.333,-73.831 -1.5,-111 -0.717,-0.5442 -1.217,-1.2109 -1.5,-2 z"
       id="path98" />
  </g>
  <g
     id="g104"
     transform="translate(-169.52392,-30.499975)">
    <path
       style="opacity:1"
       fill="#5678a6"
       d="m 321.5,135.5 c 4.889,0.519 9.722,1.185 14.5,2 0.667,3.667 0.667,7.333 0,11 -2.877,0.369 -5.044,-0.965 -6.5,-4 1.617,0.538 3.284,0.871 5,1 0,-2.667 0,-5.333 0,-8 -4.014,0.166 -8.014,-0.001 -12,-0.5 -0.556,-0.383 -0.889,-0.883 -1,-1.5 z"
       id="path102" />
  </g>
  <g
     id="g108"
     transform="translate(-169.52392,-30.499975)">
    <path
       style="opacity:1"
       fill="#1f4d99"
       d="m 367.5,136.5 c 3.416,4.375 8.082,6.709 14,7 1.109,0.057 2.109,0.39 3,1 0.074,1.911 1.074,3.078 3,3.5 -0.333,0.333 -0.667,0.667 -1,1 3.783,1.058 7.117,2.891 10,5.5 -0.124,0.607 -0.457,0.94 -1,1 -0.958,-0.453 -1.792,-1.119 -2.5,-2 -0.374,0.916 -0.874,1.75 -1.5,2.5 -1.601,0.273 -3.101,0.773 -4.5,1.5 -0.333,-0.333 -0.667,-0.667 -1,-1 -0.483,0.948 -0.649,1.948 -0.5,3 1.373,-0.157 2.707,0.01 4,0.5 -0.833,0.167 -1.667,0.333 -2.5,0.5 -8.756,-0.865 -18.589,-0.865 -29.5,0 -1.172,-0.419 -2.172,-1.085 -3,-2 -0.094,-4.829 0.239,-9.663 1,-14.5 -0.948,-0.483 -1.948,-0.649 -3,-0.5 0.322,5.858 -0.011,11.525 -1,17 0,-7.667 0,-15.333 0,-23 5.37,0.108 10.703,-0.225 16,-1 z"
       id="path106" />
  </g>
  <g
     id="g112"
     transform="translate(-169.52392,-30.499975)">
    <path
       style="opacity:1"
       fill="#1f4e99"
       d="m 314.5,148.5 c 0,9.333 0,18.667 0,28 -0.986,-4.47 -1.319,-9.137 -1,-14 0.324,-4.055 -0.009,-8.055 -1,-12 -0.925,-1.141 -1.759,-1.141 -2.5,0 -0.494,1.634 -0.66,3.301 -0.5,5 -12.338,-0.167 -24.671,0 -37,0.5 -2.619,0.184 -5.119,1.017 -7.5,2.5 -2.873,-12.243 -4.04,-11.91 -3.5,1 0,0.333 0,0.667 0,1 -0.333,0 -0.667,0 -1,0 0,-4 0,-8 0,-12 0.829,-7.489 1.329,-15.156 1.5,-23 0.499,5.657 0.666,11.324 0.5,17 2.138,-0.203 3.805,-1.203 5,-3 1,0.333 1.667,1 2,2 14.651,1.667 29.317,2 44,1 -0.295,2.235 0.039,4.235 1,6 z"
       id="path110" />
  </g>
  <g
     id="g116"
     transform="translate(-169.52392,-30.499975)">
    <path
       style="opacity:1"
       fill="#516d99"
       d="m 368.5,132.5 c 0.268,1.599 -0.066,2.932 -1,4 -5.297,0.775 -10.63,1.108 -16,1 0,7.667 0,15.333 0,23 -0.342,0.838 -1.008,1.172 -2,1 -0.166,-8.007 0,-16.007 0.5,-24 4.08,-0.8 8.247,-1.3 12.5,-1.5 2.525,-0.424 4.525,-1.59 6,-3.5 z"
       id="path114" />
  </g>
  <g
     id="g120"
     transform="translate(-169.52392,-30.499975)">
    <path
       style="opacity:1"
       fill="#4b6499"
       d="m 384.5,144.5 c 7.256,4.262 13.923,9.262 20,15 -3.024,-1.377 -6.024,-2.711 -9,-4 0.543,-0.06 0.876,-0.393 1,-1 -2.883,-2.609 -6.217,-4.442 -10,-5.5 0.333,-0.333 0.667,-0.667 1,-1 -1.926,-0.422 -2.926,-1.589 -3,-3.5 z"
       id="path118" />
  </g>
  <g
     id="g124"
     transform="translate(-169.52392,-30.499975)">
    <path
       style="opacity:1"
       fill="#244390"
       d="m 395.5,155.5 c 2.976,1.289 5.976,2.623 9,4 2,1.667 4,3.333 6,5 0,0.667 0,1.333 0,2 -1.208,-0.734 -2.541,-1.067 -4,-1 0,1.333 0,2.667 0,4 -1.333,0 -2.667,0 -4,0 0.188,-1.603 -0.312,-2.937 -1.5,-4 -2.699,2.542 -5.699,3.209 -9,2 -0.333,0.667 -0.667,1.333 -1,2 -6.667,0 -12.667,0 -18,0 -2.352,-0.973 -4.685,-1.973 -7,-3 -2.001,1.934 -4.168,3.601 -6.5,5 2.434,2.421 4.434,5.088 6,8 -4.798,-4.297 -9.465,-8.797 -14,-13.5 -5.292,-0.362 -5.958,-1.862 -2,-4.5 0.992,0.172 1.658,-0.162 2,-1 0.989,-5.475 1.322,-11.142 1,-17 1.052,-0.149 2.052,0.017 3,0.5 -0.761,4.837 -1.094,9.671 -1,14.5 0.828,0.915 1.828,1.581 3,2 10.911,-0.865 20.744,-0.865 29.5,0 0.833,-0.167 1.667,-0.333 2.5,-0.5 -1.293,-0.49 -2.627,-0.657 -4,-0.5 -0.149,-1.052 0.017,-2.052 0.5,-3 0.333,0.333 0.667,0.667 1,1 1.399,-0.727 2.899,-1.227 4.5,-1.5 0.626,-0.75 1.126,-1.584 1.5,-2.5 0.708,0.881 1.542,1.547 2.5,2 z"
       id="path122" />
  </g>
  <g
     id="g128"
     transform="translate(-169.52392,-30.499975)">
    <path
       style="opacity:1"
       fill="#4e66a0"
       d="m 318.5,141.5 c 0,0.667 -0.333,1 -1,1 -1.987,17.97 -2.654,36.303 -2,55 0.172,0.992 -0.162,1.658 -1,2 0,-7.667 0,-15.333 0,-23 0,-9.333 0,-18.667 0,-28 0,-2.333 0,-4.667 0,-7 1.333,0 2.667,0 4,0 z"
       id="path126" />
  </g>
  <g
     id="g132"
     transform="translate(-169.52392,-30.499975)">
    <path
       style="opacity:1"
       fill="#1f4392"
       d="m 313.5,162.5 c -0.802,-1.452 -1.302,-3.118 -1.5,-5 -0.497,2.646 -0.664,5.313 -0.5,8 -1.583,6.042 -4.75,7.042 -9.5,3 -4.667,1.333 -9.333,1.333 -14,0 -0.667,2.667 -1.333,2.667 -2,0 -2.667,0 -5.333,0 -8,0 -0.667,2.667 -1.333,2.667 -2,0 -2.184,-0.608 -4.184,0.059 -6,2 -1.667,-2.667 -3.333,-2.667 -5,0 -0.278,-0.916 -0.778,-1.582 -1.5,-2 0.164,-2.687 -0.003,-5.354 -0.5,-8 -0.383,-0.556 -0.883,-0.889 -1.5,-1 -0.54,-12.91 0.627,-13.243 3.5,-1 2.381,-1.483 4.881,-2.316 7.5,-2.5 12.329,-0.5 24.662,-0.667 37,-0.5 -0.16,-1.699 0.006,-3.366 0.5,-5 0.741,-1.141 1.575,-1.141 2.5,0 0.991,3.945 1.324,7.945 1,12 z"
       id="path130" />
  </g>
  <g
     id="g136"
     transform="translate(-169.52392,-30.499975)">
    <path
       style="opacity:0.517"
       fill="#7d8cb5"
       d="m 317.5,142.5 c -1.325,10.791 -1.325,21.624 0,32.5 -0.62,7.643 -1.287,15.143 -2,22.5 -0.654,-18.697 0.013,-37.03 2,-55 z"
       id="path134" />
  </g>
  <g
     id="g140"
     transform="translate(-169.52392,-30.499975)">
    <path
       style="opacity:1"
       fill="#263a8b"
       d="m 410.5,166.5 c 1.604,0.787 2.271,2.12 2,4 3.814,0.151 5.481,2.151 5,6 1.588,2.606 0.755,3.94 -2.5,4 -13.618,-1.542 -26.784,-2.042 -39.5,-1.5 -1.314,0.985 -2.314,2.152 -3,3.5 -0.755,-1.966 -1.921,-2.3 -3.5,-1 -0.816,-1.323 -1.983,-1.989 -3.5,-2 -1.566,-2.912 -3.566,-5.579 -6,-8 2.332,-1.399 4.499,-3.066 6.5,-5 2.315,1.027 4.648,2.027 7,3 5.333,0 11.333,0 18,0 0.333,-0.667 0.667,-1.333 1,-2 3.301,1.209 6.301,0.542 9,-2 1.188,1.063 1.688,2.397 1.5,4 1.333,0 2.667,0 4,0 0,-1.333 0,-2.667 0,-4 1.459,-0.067 2.792,0.266 4,1 z"
       id="path138" />
  </g>
  <g
     id="g144"
     transform="translate(-169.52392,-30.499975)">
    <path
       style="opacity:1"
       fill="#445291"
       d="m 410.5,164.5 c 8.027,8.027 16.027,16.027 24,24 -3.686,-1.18 -6.686,-3.347 -9,-6.5 -1.284,-0.684 -2.451,-0.517 -3.5,0.5 -0.494,-1.634 -0.66,-3.301 -0.5,-5 -1.459,0.067 -2.792,-0.266 -4,-1 0.481,-3.849 -1.186,-5.849 -5,-6 0.271,-1.88 -0.396,-3.213 -2,-4 0,-0.667 0,-1.333 0,-2 z"
       id="path142" />
  </g>
  <g
     id="g148"
     transform="translate(-169.52392,-30.499975)">
    <path
       style="opacity:1"
       fill="#464f8d"
       d="m 365.5,179.5 c 1.517,0.011 2.684,0.677 3.5,2 1.579,-1.3 2.745,-0.966 3.5,1 0.811,3.797 2.478,7.131 5,10 -4.708,-3.707 -8.708,-8.04 -12,-13 z"
       id="path146" />
  </g>
  <g
     id="g152"
     transform="translate(-169.52392,-30.499975)">
    <path
       style="opacity:1"
       fill="#2b337f"
       d="m 417.5,176.5 c 1.208,0.734 2.541,1.067 4,1 -0.16,1.699 0.006,3.366 0.5,5 1.049,-1.017 2.216,-1.184 3.5,-0.5 2.314,3.153 5.314,5.32 9,6.5 1.13,1.815 1.796,3.815 2,6 -15.986,-0.686 -31.986,-0.52 -48,0.5 -1.178,0.967 -2.511,1.467 -4,1.5 1.326,1.142 2.326,2.476 3,4 -3.646,-2.317 -6.98,-4.984 -10,-8 -2.522,-2.869 -4.189,-6.203 -5,-10 0.686,-1.348 1.686,-2.515 3,-3.5 12.716,-0.542 25.882,-0.042 39.5,1.5 3.255,-0.06 4.088,-1.394 2.5,-4 z"
       id="path150" />
  </g>
  <g
     id="g156"
     transform="translate(-169.52392,-30.499975)">
    <path
       style="opacity:1"
       fill="#293280"
       d="m 313.5,162.5 c -0.319,4.863 0.014,9.53 1,14 0,7.667 0,15.333 0,23 -0.768,3.062 -2.768,4.728 -6,5 -1.667,0 -3.333,0 -5,0 0,-1 0,-2 0,-3 2.778,0.478 4.778,-0.522 6,-3 -2.066,-1.406 -4.232,-2.74 -6.5,-4 -13.182,0.689 -26.349,1.523 -39.5,2.5 -0.5,-0.5 -1,-1 -1.5,-1.5 -0.5,-11.662 -0.667,-23.329 -0.5,-35 0,-0.333 0,-0.667 0,-1 0.617,0.111 1.117,0.444 1.5,1 0.497,2.646 0.664,5.313 0.5,8 -0.323,3.726 0.011,7.393 1,11 0.925,1.141 1.759,1.141 2.5,0 0.833,0.833 1.667,1.667 2.5,2.5 12.185,0.767 24.018,0.6 35.5,-0.5 0.667,0.667 1.333,1.333 2,2 3.2,-5.558 4.7,-11.558 4.5,-18 -0.164,-2.687 0.003,-5.354 0.5,-8 0.198,1.882 0.698,3.548 1.5,5 z"
       id="path154" />
  </g>
  <g
     id="g160"
     transform="translate(-169.52392,-30.499975)">
    <path
       style="opacity:1"
       fill="#283a8b"
       d="m 311.5,165.5 c 0.2,6.442 -1.3,12.442 -4.5,18 -0.667,-0.667 -1.333,-1.333 -2,-2 -11.482,1.1 -23.315,1.267 -35.5,0.5 -0.833,-0.833 -1.667,-1.667 -2.5,-2.5 -0.741,1.141 -1.575,1.141 -2.5,0 -0.989,-3.607 -1.323,-7.274 -1,-11 0.722,0.418 1.222,1.084 1.5,2 1.667,-2.667 3.333,-2.667 5,0 1.816,-1.941 3.816,-2.608 6,-2 0.667,2.667 1.333,2.667 2,0 2.667,0 5.333,0 8,0 0.667,2.667 1.333,2.667 2,0 4.667,1.333 9.333,1.333 14,0 4.75,4.042 7.917,3.042 9.5,-3 z"
       id="path158" />
  </g>
  <g
     id="g164"
     transform="translate(-169.52392,-30.499975)">
    <path
       style="opacity:1"
       fill="#2f2d78"
       d="m 436.5,194.5 c 4.177,-0.658 5.677,1.008 4.5,5 -0.561,-0.522 -1.228,-0.855 -2,-1 -7.904,5.342 -16.404,6.342 -25.5,3 -2.891,1.208 -5.558,2.708 -8,4.5 -1.973,0.495 -3.973,0.662 -6,0.5 0,-1 0,-2 0,-3 -2.333,0 -4.667,0 -7,0 -1.934,-0.61 -3.601,-1.61 -5,-3 -0.674,-1.524 -1.674,-2.858 -3,-4 1.489,-0.033 2.822,-0.533 4,-1.5 16.014,-1.02 32.014,-1.186 48,-0.5 z"
       id="path162" />
  </g>
  <g
     id="g168"
     transform="translate(-169.52392,-30.499975)">
    <path
       style="opacity:1"
       fill="#313077"
       d="m 260.5,160.5 c 0.333,0 0.667,0 1,0 -0.167,11.671 0,23.338 0.5,35 0.5,0.5 1,1 1.5,1.5 13.151,-0.977 26.318,-1.811 39.5,-2.5 2.268,1.26 4.434,2.594 6.5,4 -1.222,2.478 -3.222,3.478 -6,3 0,1 0,2 0,3 1.667,0 3.333,0 5,0 -0.418,0.722 -1.084,1.222 -2,1.5 -10.597,2.772 -21.264,3.106 -32,1 -4.056,-0.351 -7.723,-1.685 -11,-4 -1.719,-1.87 -2.719,-4.037 -3,-6.5 0,-12 0,-24 0,-36 z"
       id="path166" />
  </g>
  <g
     id="g172"
     transform="translate(-169.52392,-30.499975)">
    <path
       style="opacity:1"
       fill="#524f83"
       d="m 444.5,196.5 c 6.065,3.033 12.065,6.033 18,9 -4.578,-1.415 -9.245,-2.415 -14,-3 -0.792,-2.385 -2.126,-4.385 -4,-6 z"
       id="path170" />
  </g>
  <g
     id="g176"
     transform="translate(-169.52392,-30.499975)">
    <path
       style="opacity:0.459"
       fill="#504a83"
       d="m 463.5,205.5 c 7.68,0.698 15.346,1.031 23,1 -1.926,1.744 -4.26,2.744 -7,3 1.181,-1.567 2.847,-2.401 5,-2.5 -4.151,-0.143 -8.318,0.023 -12.5,0.5 -2.167,-0.167 -4.333,-0.333 -6.5,-0.5 -0.916,-0.278 -1.582,-0.778 -2,-1.5 z"
       id="path174" />
  </g>
  <g
     id="g180"
     transform="translate(-169.52392,-30.499975)">
    <path
       style="opacity:1"
       fill="#302d73"
       d="m 434.5,188.5 c 3.373,2.678 6.706,5.344 10,8 1.874,1.615 3.208,3.615 4,6 4.755,0.585 9.422,1.585 14,3 0.333,0 0.667,0 1,0 0.418,0.722 1.084,1.222 2,1.5 2.167,0.167 4.333,0.333 6.5,0.5 4.182,-0.477 8.349,-0.643 12.5,-0.5 -2.153,0.099 -3.819,0.933 -5,2.5 -0.667,0 -1.333,0 -2,0 -6.073,0.008 -12.073,0.675 -18,2 -13.984,0.999 -27.984,1.333 -42,1 -9.221,-0.849 -17.555,-3.849 -25,-9 2.333,0 4.667,0 7,0 0,1 0,2 0,3 2.027,0.162 4.027,-0.005 6,-0.5 2.442,-1.792 5.109,-3.292 8,-4.5 9.096,3.342 17.596,2.342 25.5,-3 0.772,0.145 1.439,0.478 2,1 1.177,-3.992 -0.323,-5.658 -4.5,-5 -0.204,-2.185 -0.87,-4.185 -2,-6 z"
       id="path178" />
  </g>
  <g
     id="g184"
     transform="translate(-169.52392,-30.499975)">
    <path
       style="opacity:1"
       fill="#423c76"
       d="m 477.5,209.5 c -8.987,2.826 -18.32,4.326 -28,4.5 -10.882,0.897 -21.549,0.397 -32,-1.5 14.016,0.333 28.016,-0.001 42,-1 5.927,-1.325 11.927,-1.992 18,-2 z"
       id="path182" />
  </g>
</svg>
